<svg width="24" height="24" viewBox="0 0 24 24" fill="none" xmlns="http://www.w3.org/2000/svg">
<path d="M4 21C3.45 21 2.97933 20.8043 2.588 20.413C2.19667 20.0217 2.00067 19.5507 2 19V12H4V19H13V21H4ZM8 17C7.45 17 6.97933 16.8043 6.588 16.413C6.19667 16.0217 6.00067 15.5507 6 15V8H8V15H17V17H8ZM12 13C11.45 13 10.9793 12.8043 10.588 12.413C10.1967 12.0217 10.0007 11.5507 10 11V5C10 4.45 10.196 3.97933 10.588 3.588C10.98 3.19667 11.4507 3.00067 12 3H20C20.55 3 21.021 3.196 21.413 3.588C21.805 3.98 22.0007 4.45067 22 5V11C22 11.55 21.8043 12.021 21.413 12.413C21.0217 12.805 20.5507 13.0007 20 13H12ZM12 11H20V7H12V11Z" fill="#7E54E1"/>
</svg>
